<svg xmlns="http://www.w3.org/2000/svg" xmlns:svg="http://www.w3.org/2000/svg" id="SVGRoot" width="16" height="16" version="1.1" viewBox="0 0 16 16"><metadata id="metadata5290"/><path id="path822" d="m 11,6.5 c -2.4852814,0 -4.5,2.0147186 -4.5,4.5 0,2.485281 2.0147186,4.5 4.5,4.5 2.485281,0 4.5,-2.014719 4.5,-4.5 0,-2.4852814 -2.014719,-4.5 -4.5,-4.5 z" style="opacity:1;fill:#fff;fill-opacity:1;stroke:none;stroke-width:1.28571439;stroke-miterlimit:4;stroke-dasharray:none;stroke-opacity:1"/><path style="opacity:1;fill:#fff;fill-opacity:1;stroke:none;stroke-width:1.28571439;stroke-miterlimit:4;stroke-dasharray:none;stroke-opacity:1" id="path819" d="M 5,0.5 C 2.5147186,0.5 0.5,2.5147186 0.5,5 0.5,7.4852814 2.5147186,9.5 5,9.5 7.4852814,9.5 9.5,7.4852814 9.5,5 9.5,2.5147186 7.4852814,0.5 5,0.5 Z"/><circle id="path821" cx="11" cy="11" r="4" style="opacity:1;fill:#0166a9;fill-opacity:1;stroke:none;stroke-width:1.14285719;stroke-miterlimit:4;stroke-dasharray:none;stroke-opacity:1"/><path id="path821-7" d="M 5,1 C 2.790861,1 1,2.790861 1,5 1,7.209139 2.790861,9 5,9 7.209139,9 9,7.209139 9,5 9,2.790861 7.209139,1 5,1 Z" style="opacity:1;fill:#7f7f7f;fill-opacity:1;stroke:none;stroke-width:1.14285719;stroke-miterlimit:4;stroke-dasharray:none;stroke-opacity:1"/></svg>