<svg xmlns="http://www.w3.org/2000/svg" xmlns:svg="http://www.w3.org/2000/svg" id="svg4819" width="16" height="16" version="1.1" viewBox="0 0 16 16"><metadata id="metadata4824"/><path id="path918" d="M 13.585938,0.29296875 9.1230469,4.7558594 C 8.9179163,4.684856 8.7099701,4.6196832 8.5,4.5703125 V 1.5 H 8 C 4.4160714,1.5 1.5,4.4160714 1.5,8 c 0.00175,1.1999382 0.3850235,2.351348 1.0097656,3.369141 l -2.21679685,2.216797 2.12109375,2.121093 2.21875,-2.21875 C 5.6498713,14.113396 6.7985466,14.497314 7.9980469,14.5 H 8 c 3.583929,0 6.5,-2.916071 6.5,-6.5 V 7.5 H 11.429688 C 11.380317,7.2900293 11.315144,7.0820836 11.244141,6.8769531 l 4.46289,-4.4628906 z" style="color:#000;font-style:normal;font-variant:normal;font-weight:400;font-stretch:normal;font-size:medium;line-height:normal;font-family:sans-serif;font-variant-ligatures:normal;font-variant-position:normal;font-variant-caps:normal;font-variant-numeric:normal;font-variant-alternates:normal;font-feature-settings:normal;text-indent:0;text-align:start;text-decoration:none;text-decoration-line:none;text-decoration-style:solid;text-decoration-color:#000;letter-spacing:normal;word-spacing:normal;text-transform:none;writing-mode:lr-tb;direction:ltr;text-orientation:mixed;dominant-baseline:auto;baseline-shift:baseline;text-anchor:start;white-space:normal;shape-padding:0;clip-rule:nonzero;display:inline;overflow:visible;visibility:visible;opacity:1;isolation:auto;mix-blend-mode:normal;color-interpolation:sRGB;color-interpolation-filters:linearRGB;solid-color:#000;solid-opacity:1;vector-effect:none;fill:#fff;fill-opacity:1;fill-rule:nonzero;stroke:none;stroke-width:1;stroke-linecap:butt;stroke-linejoin:miter;stroke-miterlimit:4;stroke-dasharray:none;stroke-dashoffset:0;stroke-opacity:1;color-rendering:auto;image-rendering:auto;shape-rendering:auto;text-rendering:auto;enable-background:accumulate"/><path id="circle842" d="m 8,2.0000001 a 6,6 0 0 0 -6,6 6,6 0 0 0 1.113282,3.4726559 L 1,13.585938 2.414063,15 4.529297,12.884766 A 6,6 0 0 0 8,14 6,6 0 0 0 14,8.0000001 H 12 A 4,4 0 0 1 8,12 4,4 0 0 1 4,8.0000001 a 4,4 0 0 1 4,-4 z" style="opacity:1;fill:#d4aa00;fill-opacity:1;stroke:none;stroke-width:1.99999976;stroke-miterlimit:4;stroke-dasharray:none;stroke-opacity:1"/><path id="path838" d="M 13.585938,1 9.291016,5.2949219 A 3,3 0 0 0 8,5 3,3 0 0 0 5,8.0000001 3,3 0 0 0 8,11 3,3 0 0 0 11,8.0000001 3,3 0 0 0 10.705078,6.7089844 L 15,2.4140625 Z" style="opacity:1;fill:green;fill-opacity:1;stroke:none;stroke-width:1;stroke-miterlimit:4;stroke-dasharray:none;stroke-opacity:1"/></svg>