<svg xmlns="http://www.w3.org/2000/svg" xmlns:svg="http://www.w3.org/2000/svg" id="svg4819" width="16" height="16" version="1.1" viewBox="0 0 16 16"><metadata id="metadata4824"/><path id="path878" d="M 13.585938,0.29296875 13.232422,0.64648438 9.1230469,4.7558594 C 8.757941,4.6294826 8.3901339,4.5007931 8.0019531,4.5 H 8 C 6.0729256,4.5 4.4999999,6.0729256 4.5,8 c 1e-7,1.9270743 1.5729257,3.5 3.5,3.5 1.9270743,0 3.5,-1.5729257 3.5,-3.5 V 7.99805 C 11.499207,7.6098662 11.370517,7.2420589 11.244141,6.8769531 l 4.46289,-4.4628906 z" style="color:#000;font-style:normal;font-variant:normal;font-weight:400;font-stretch:normal;font-size:medium;line-height:normal;font-family:sans-serif;font-variant-ligatures:normal;font-variant-position:normal;font-variant-caps:normal;font-variant-numeric:normal;font-variant-alternates:normal;font-feature-settings:normal;text-indent:0;text-align:start;text-decoration:none;text-decoration-line:none;text-decoration-style:solid;text-decoration-color:#000;letter-spacing:normal;word-spacing:normal;text-transform:none;writing-mode:lr-tb;direction:ltr;text-orientation:mixed;dominant-baseline:auto;baseline-shift:baseline;text-anchor:start;white-space:normal;shape-padding:0;clip-rule:nonzero;display:inline;overflow:visible;visibility:visible;opacity:1;isolation:auto;mix-blend-mode:normal;color-interpolation:sRGB;color-interpolation-filters:linearRGB;solid-color:#000;solid-opacity:1;vector-effect:none;fill:#fff;fill-opacity:1;fill-rule:nonzero;stroke:none;stroke-width:1;stroke-linecap:butt;stroke-linejoin:miter;stroke-miterlimit:4;stroke-dasharray:none;stroke-dashoffset:0;stroke-opacity:1;color-rendering:auto;image-rendering:auto;shape-rendering:auto;text-rendering:auto;enable-background:accumulate"/><path style="opacity:1;fill:green;fill-opacity:1;stroke:none;stroke-width:1;stroke-miterlimit:4;stroke-dasharray:none;stroke-opacity:1" id="path838" d="M 13.585938,1 9.291016,5.2949219 A 3,3 0 0 0 8,5 3,3 0 0 0 5,8.0000001 3,3 0 0 0 8,11 3,3 0 0 0 11,8.0000001 3,3 0 0 0 10.705078,6.7089844 L 15,2.4140625 Z"/></svg>