<svg xmlns="http://www.w3.org/2000/svg" xmlns:svg="http://www.w3.org/2000/svg" id="SVGRoot" width="16" height="16" version="1.1" viewBox="0 0 16 16"><metadata id="metadata5290"/><path id="path815" d="M 4,0.5 C 2.0729257,0.5 0.5,2.0729257 0.5,4 V 15.5 H 12 c 1.927074,0 3.5,-1.572926 3.5,-3.5 V 0.5 Z" style="color:#000;font-style:normal;font-variant:normal;font-weight:400;font-stretch:normal;font-size:medium;line-height:normal;font-family:sans-serif;font-variant-ligatures:normal;font-variant-position:normal;font-variant-caps:normal;font-variant-numeric:normal;font-variant-alternates:normal;font-feature-settings:normal;text-indent:0;text-align:start;text-decoration:none;text-decoration-line:none;text-decoration-style:solid;text-decoration-color:#000;letter-spacing:normal;word-spacing:normal;text-transform:none;writing-mode:lr-tb;direction:ltr;text-orientation:mixed;dominant-baseline:auto;baseline-shift:baseline;text-anchor:start;white-space:normal;shape-padding:0;clip-rule:nonzero;display:inline;overflow:visible;visibility:visible;opacity:1;isolation:auto;mix-blend-mode:normal;color-interpolation:sRGB;color-interpolation-filters:linearRGB;solid-color:#000;solid-opacity:1;vector-effect:none;fill:#fff;fill-opacity:1;fill-rule:nonzero;stroke:none;stroke-width:1;stroke-linecap:butt;stroke-linejoin:miter;stroke-miterlimit:4;stroke-dasharray:none;stroke-dashoffset:0;stroke-opacity:1;color-rendering:auto;image-rendering:auto;shape-rendering:auto;text-rendering:auto;enable-background:accumulate"/><path style="opacity:1;fill:#666;fill-opacity:1;stroke:none;stroke-width:.85714287;stroke-miterlimit:4;stroke-dasharray:none;stroke-opacity:1" id="path4859" d="M 4,1 A 3,3 0 0 0 1,4 3,3 0 0 0 4,7 3,3 0 0 0 6.8261719,5 H 9 v 2 h 2 V 9.1835938 C 9.8371953,9.5967176 9,10.69549 9,12 c 0,1.656854 1.343146,3 3,3 1.656854,0 3,-1.343146 3,-3 0,-1.30451 -0.837195,-2.4032824 -2,-2.8164062 V 7 h 2 V 1 H 9 V 3 H 6.8242188 A 3,3 0 0 0 4,1 Z M 4,3 A 1,1 0 0 1 5,4 1,1 0 0 1 4,5 1,1 0 0 1 3,4 1,1 0 0 1 4,3 Z M 1,9 v 6 H 7 V 9 Z m 2,2 h 2 v 2 H 3 Z"/></svg>