<svg xmlns="http://www.w3.org/2000/svg" xmlns:svg="http://www.w3.org/2000/svg" id="svg4819" width="16" height="16" version="1.1" viewBox="0 0 16 16"><metadata id="metadata4824"/><g id="rect1989"><path style="color:#000;fill:#feffff;-inkscape-stroke:none;fill-opacity:1" id="path2993" d="m 12.5,7.5 c -1.098646,0 -2,0.9013539 -2,2 v 2 h -1 v 4 h 6 v -4 h -1 v -2 c 0,-1.0986461 -0.901354,-2 -2,-2 z"/></g><rect id="rect838" width="5" height="3" x="10" y="12" style="fill:#a00;fill-opacity:1;stroke:none;stroke-width:.774597;stroke-miterlimit:4;stroke-dasharray:none;stroke-opacity:1"/><path id="path488" d="M 12.5 8 A 1.5 1.5 0 0 0 11 9.5 L 11 12 L 12 12 L 12 9.5 A 0.5 0.5 0 0 1 12.5 9 A 0.5 0.5 0 0 1 13 9.5 L 13 12 L 14 12 L 14 9.5 A 1.5 1.5 0 0 0 12.5 8 z" style="fill:#000;fill-rule:evenodd"/></svg>