<svg xmlns="http://www.w3.org/2000/svg" xmlns:svg="http://www.w3.org/2000/svg" id="svg913" width="16" height="16" version="1.1" viewBox="0 0 4.233 4.233"><metadata id="metadata910"/><g id="layer1" transform="translate(0,-292.76667)"><g id="g5181" transform="translate(92.278163,-80.247377)"><path style="fill:#ffd42a;fill-opacity:1;stroke:none;stroke-width:.13229166;stroke-linecap:butt;stroke-linejoin:miter;stroke-miterlimit:4;stroke-dasharray:none;stroke-opacity:1" id="path864" d="m -90.161496,376.45363 v -1.32292 l 0.79375,-1.5875 c 0,0 0.264584,-0.52916 0.79375,-0.26458 0.529167,0.26458 0.264584,0.79375 0.264584,0.79375 l -0.79375,1.5875 z"/><path style="fill:#ff80b2;fill-opacity:1;stroke:none;stroke-width:.13229166;stroke-linecap:butt;stroke-linejoin:miter;stroke-miterlimit:4;stroke-dasharray:none;stroke-opacity:1" id="path886" d="m -88.921261,373.20835 c -0.297656,0.0372 -0.446485,0.33486 -0.446485,0.33486 l 1.058334,0.52917 c 0,0 0.264583,-0.52917 -0.264584,-0.79375 -0.132291,-0.0661 -0.248046,-0.0827 -0.347265,-0.0703 z"/><path style="fill:#e9ddaf;fill-opacity:1;stroke:none;stroke-width:.26458332px;stroke-linecap:butt;stroke-linejoin:miter;stroke-opacity:1" id="path874" d="m -90.161496,375.13071 1.058334,0.52917 -1.058334,0.79375 z"/><path style="fill:#000;fill-opacity:1;stroke:none;stroke-width:.26458332px;stroke-linecap:butt;stroke-linejoin:miter;stroke-opacity:1" id="path870" d="m -90.161496,376.45363 0.598929,-0.45306 -0.598929,-0.34069 z"/><path id="path872" d="m -90.161496,376.45363 v -1.32292 l 0.79375,-1.5875 c 0,0 0.264584,-0.52916 0.79375,-0.26458 0.529167,0.26458 0.264584,0.79375 0.264584,0.79375 l -0.79375,1.5875 z" style="fill:none;fill-opacity:1;stroke:#000;stroke-width:.13229166;stroke-linecap:butt;stroke-linejoin:miter;stroke-miterlimit:4;stroke-dasharray:none;stroke-opacity:1"/><path style="fill:none;stroke:#000;stroke-width:.13229166;stroke-linecap:butt;stroke-linejoin:miter;stroke-miterlimit:4;stroke-dasharray:none;stroke-opacity:1" id="path891" d="m -89.367746,373.54321 1.058334,0.52917"/></g></g></svg>