<svg xmlns="http://www.w3.org/2000/svg" xmlns:svg="http://www.w3.org/2000/svg" id="svg2" width="16" height="16" version="1.1"><metadata id="metadata8"/><rect id="rect815" width="14" height="5" x="1" y="10" style="fill:#fff;fill-opacity:1;stroke:none;stroke-width:.19106248;stroke-miterlimit:4;stroke-dasharray:none;stroke-opacity:1"/><path style="opacity:1;vector-effect:none;fill:#d4aa00;fill-opacity:1;stroke:#000;stroke-width:1;stroke-linecap:butt;stroke-linejoin:miter;stroke-miterlimit:4;stroke-dasharray:none;stroke-dashoffset:0;stroke-opacity:1" id="path834" d="M 11,9.0004759 H 9 V 5.5 C 9,3 9,3 6.5,3 H 1 V 5 H 6.5 C 7,5 7,5 7,5.5 V 9.0004759 L 5,9 8,12.000476 Z"/><rect id="rect819" width="3" height="3" x="2" y="11" style="fill:#0166a9;fill-opacity:1;stroke:none;stroke-width:2.25;stroke-miterlimit:4;stroke-dasharray:none;stroke-opacity:1"/><rect id="rect821" width="3" height="3" x="11" y="11" style="fill:#0166a9;fill-opacity:1;stroke:none;stroke-width:2.25;stroke-miterlimit:4;stroke-dasharray:none;stroke-opacity:1"/><path id="rect4163" d="M 11,9.0004759 H 9 V 5.5 C 9,3 9,3 6.5,3 H 1 V 5 H 6.5 C 7,5 7,5 7,5.5 V 9.0004759 L 5,9 8,12.000476 Z" style="opacity:1;vector-effect:none;fill:#d4aa00;fill-opacity:1;stroke:none;stroke-width:1;stroke-linecap:butt;stroke-linejoin:miter;stroke-miterlimit:4;stroke-dasharray:none;stroke-dashoffset:0;stroke-opacity:1"/></svg>