<svg xmlns="http://www.w3.org/2000/svg" xmlns:svg="http://www.w3.org/2000/svg" id="svg2" width="16" height="16" version="1.1"><metadata id="metadata8"/><rect style="fill:#fff;fill-opacity:1;stroke:none;stroke-width:.19106248;stroke-miterlimit:4;stroke-dasharray:none;stroke-opacity:1" id="rect815" width="14" height="5" x="-15" y="10" transform="scale(-1,1)"/><path id="path829" d="m 11,3 h 0.5 C 14,3 14,3 14,5.5 V 11 H 12 V 5.5 C 12,5 12,5 11.5,5 H 11 5.5 C 5,5 5,5 5,5.5 V 9 H 7 L 4,12 1,9 H 3 V 5.5 C 3,3 3,3 5.5,3 Z" style="opacity:1;vector-effect:none;fill:#d4aa00;fill-opacity:1;stroke:#000;stroke-width:1;stroke-linecap:butt;stroke-linejoin:miter;stroke-miterlimit:4;stroke-dasharray:none;stroke-dashoffset:0;stroke-opacity:1"/><rect style="fill:#0166a9;fill-opacity:1;stroke:none;stroke-width:2.25;stroke-miterlimit:4;stroke-dasharray:none;stroke-opacity:1" id="rect819" width="3" height="3" x="-10" y="11" transform="scale(-1,1)"/><path style="opacity:1;vector-effect:none;fill:#d4aa00;fill-opacity:1;stroke:none;stroke-width:1;stroke-linecap:butt;stroke-linejoin:miter;stroke-miterlimit:4;stroke-dasharray:none;stroke-dashoffset:0;stroke-opacity:1" id="rect4163" d="m 11,3 h 0.5 C 14,3 14,3 14,5.5 V 11 H 12 V 5.5 C 12,5 12,5 11.5,5 H 11 5.5 C 5,5 5,5 5,5.5 V 9 H 7 L 4,12 1,9 H 3 V 5.5 C 3,3 3,3 5.5,3 Z"/></svg>