<svg xmlns="http://www.w3.org/2000/svg" xmlns:svg="http://www.w3.org/2000/svg" id="svg2" width="16" height="16" version="1.1"><metadata id="metadata8"/><path style="opacity:1;vector-effect:none;fill:#d4aa00;fill-opacity:1;stroke:#000;stroke-width:1;stroke-linecap:butt;stroke-linejoin:miter;stroke-miterlimit:4;stroke-dasharray:none;stroke-dashoffset:0;stroke-opacity:1" id="path839" d="M 6,2 H 5.5 C 3,2 3,2 3,4.5 V 9 H 5 V 4.5 C 5,4 5,4 5.5,4 H 6 11.5 C 12,4 12,4 12,4.5 V 5 10.5 C 12,11 12,11 11.5,11 H 11 9.6601562 8 V 9 l -3,3 3,3 V 13 H 9.6601562 11 11.5 C 14,13 14,13 14,10.5 V 5 4.5 C 14,2 14,2 11.5,2 Z"/><path id="rect4163" d="M 6,2 H 5.5 C 3,2 3,2 3,4.5 V 9 H 5 V 4.5 C 5,4 5,4 5.5,4 H 6 11.5 C 12,4 12,4 12,4.5 V 5 10.5 C 12,11 12,11 11.5,11 H 11 9.6601562 8 V 9 l -3,3 3,3 V 13 H 9.6601562 11 11.5 C 14,13 14,13 14,10.5 V 5 4.5 C 14,2 14,2 11.5,2 Z" style="opacity:1;vector-effect:none;fill:#d4aa00;fill-opacity:1;stroke:none;stroke-width:1;stroke-linecap:butt;stroke-linejoin:miter;stroke-miterlimit:4;stroke-dasharray:none;stroke-dashoffset:0;stroke-opacity:1"/></svg>