<svg xmlns="http://www.w3.org/2000/svg" xmlns:svg="http://www.w3.org/2000/svg" id="svg2" width="16" height="16" version="1.1"><metadata id="metadata8"/><rect id="rect815" width="14" height="5" x="-15" y="10" transform="scale(-1,1)" style="fill:#fff;fill-opacity:1;stroke:none;stroke-width:.191062;stroke-miterlimit:4;stroke-dasharray:none;stroke-opacity:1"/><path style="opacity:1;vector-effect:none;fill:#d4aa00;fill-opacity:1;stroke:#000;stroke-width:1;stroke-linecap:butt;stroke-linejoin:miter;stroke-miterlimit:4;stroke-dasharray:none;stroke-dashoffset:0;stroke-opacity:1" id="path834" d="M 5,9.0004758 H 7 V 5.5 C 7,3 7,3 9.5,3 H 15 V 5 H 9.5 C 9,5 9,5 9,5.5 v 3.5004758 l 2,-4.759e-4 -3,3.0004761 z"/><rect id="rect819" width="3" height="3" x="-14" y="11" transform="scale(-1,1)" style="fill:#0166a9;fill-opacity:1;stroke:none;stroke-width:2.25;stroke-miterlimit:4;stroke-dasharray:none;stroke-opacity:1"/><rect id="rect821" width="3" height="3" x="-5" y="11" transform="scale(-1,1)" style="fill:#0166a9;fill-opacity:1;stroke:none;stroke-width:2.25;stroke-miterlimit:4;stroke-dasharray:none;stroke-opacity:1"/><path id="rect4163" d="M 5,9.0004758 H 7 V 5.5 C 7,3 7,3 9.5,3 H 15 V 5 H 9.5 C 9,5 9,5 9,5.5 v 3.5004758 l 2,-4.759e-4 -3,3.0004761 z" style="opacity:1;vector-effect:none;fill:#d4aa00;fill-opacity:1;stroke:none;stroke-width:1;stroke-linecap:butt;stroke-linejoin:miter;stroke-miterlimit:4;stroke-dasharray:none;stroke-dashoffset:0;stroke-opacity:1"/></svg>