<svg xmlns="http://www.w3.org/2000/svg" xmlns:svg="http://www.w3.org/2000/svg" id="svg8" width="16" height="16" version="1.1" viewBox="0 0 4.233 4.233"><metadata id="metadata5"/><g id="layer1"><g id="g858" transform="scale(0.26458333)"><circle id="circle819" cx="8" cy="8" r="6.5" style="opacity:1;fill:#000;fill-opacity:1;stroke:none;stroke-width:1.85714293;stroke-miterlimit:4;stroke-dasharray:none;stroke-opacity:1"/><circle style="opacity:1;fill:#fff;fill-opacity:1;stroke:none;stroke-width:1.71428585;stroke-miterlimit:4;stroke-dasharray:none;stroke-opacity:1" id="circle3698" cx="8" cy="8" r="6"/><circle id="path821" cx="8" cy="8" r="4" style="opacity:1;fill:#ff2a2a;fill-opacity:1;stroke:none;stroke-width:1.14285719;stroke-miterlimit:4;stroke-dasharray:none;stroke-opacity:1"/></g></g><g id="layer2"><g id="g5189"><path style="fill:#ffd42a;fill-opacity:1;stroke:none;stroke-width:.13229167;stroke-linecap:butt;stroke-linejoin:miter;stroke-miterlimit:4;stroke-dasharray:none;stroke-opacity:1" id="path864" d="M 2.1166667,3.4395831 V 2.1166664 l 0.79375,-1.58749998 c 0,0 0.2645833,-0.52916667232633 0.79375,-0.26458334 C 4.2333334,0.52916642 3.96875,1.0583331 3.96875,1.0583331 l -0.79375,1.5875 z"/><path style="fill:#ff80b2;fill-opacity:1;stroke:none;stroke-width:.13229166;stroke-linecap:butt;stroke-linejoin:miter;stroke-miterlimit:4;stroke-dasharray:none;stroke-opacity:1" id="path886" d="M 3.356901,0.19430338 C 3.0592448,0.23151042 2.9104166,0.52916666 2.9104166,0.52916666 L 3.96875,1.0583333 c 0,0 0.2645833,-0.52916664 -0.2645834,-0.79374997 C 3.571875,0.19843753 3.4561198,0.18190103 3.356901,0.19430338 Z"/><path style="fill:#e9ddaf;fill-opacity:1;stroke:none;stroke-width:.26458332px;stroke-linecap:butt;stroke-linejoin:miter;stroke-opacity:1" id="path874" d="M 2.1166667,2.1166664 3.175,2.645833 2.1166667,3.439583 Z"/><path style="fill:#000;fill-opacity:1;stroke:none;stroke-width:.26458332px;stroke-linecap:butt;stroke-linejoin:miter;stroke-opacity:1" id="path870" d="M 2.1166667,3.439583 2.7155952,2.9865203 2.1166667,2.645833 Z"/><path id="path872" d="M 2.1166667,3.4395831 V 2.1166664 l 0.79375,-1.58749998 c 0,0 0.2645833,-0.52916667232633 0.79375,-0.26458334 C 4.2333334,0.52916642 3.96875,1.0583331 3.96875,1.0583331 l -0.79375,1.5875 z" style="fill:none;fill-opacity:1;stroke:#000;stroke-width:.13229167;stroke-linecap:butt;stroke-linejoin:miter;stroke-miterlimit:4;stroke-dasharray:none;stroke-opacity:1"/><path style="fill:none;stroke:#000;stroke-width:.13229167;stroke-linecap:butt;stroke-linejoin:miter;stroke-opacity:1;stroke-miterlimit:4;stroke-dasharray:none" id="path891" d="M 2.9104166,0.5291664 3.96875,1.0583331"/></g></g></svg>